<svg viewBox="0 0 850 100" xmlns="http://www.w3.org/2000/svg">
<path d="M10,10 l0,100 z" fill="none" stroke="black" stroke-width="1"/>
<path d="M50,10 l0,100 M50,10 l25,25 z" fill="none" stroke="black" stroke-width="1"/>
<path d="M90,10 l0,100 M115,35 l-25,25 z" fill="none" stroke="black" stroke-width="1"/>
<path d="M130,10 l0,100 M130,10 l25,25 M155,35 l-25,25 z" fill="none" stroke="black" stroke-width="1"/>
<path d="M170,10 l0,100 M170,60 l25,25 z" fill="none" stroke="black" stroke-width="1"/>
<path d="M210,10 l0,100 M210,10 l25,25 M210,60 l25,25 z" fill="none" stroke="black" stroke-width="1"/>
<path d="M250,10 l0,100 M275,35 l-25,25 M250,60 l25,25 z" fill="none" stroke="black" stroke-width="1"/>
<path d="M290,10 l0,100 M290,10 l25,25 M315,35 l-25,25 M290,60 l25,25 z" fill="none" stroke="black" stroke-width="1"/>
<path d="M330,10 l0,100 M355,85 l-25,25 z" fill="none" stroke="black" stroke-width="1"/>
<path d="M370,10 l0,100 M370,10 l25,25 M395,85 l-25,25 z" fill="none" stroke="black" stroke-width="1"/>
<path d="M410,10 l0,100 M435,35 l-25,25 M435,85 l-25,25 z" fill="none" stroke="black" stroke-width="1"/>
<path d="M450,10 l0,100 M450,10 l25,25 M475,35 l-25,25 M475,85 l-25,25 z" fill="none" stroke="black" stroke-width="1"/>
<path d="M490,10 l0,100 M490,60 l25,25 M515,85 l-25,25 z" fill="none" stroke="black" stroke-width="1"/>
<path d="M530,10 l0,100 M530,10 l25,25 M530,60 l25,25 M555,85 l-25,25 z" fill="none" stroke="black" stroke-width="1"/>
<path d="M570,10 l0,100 M595,35 l-25,25 M570,60 l25,25 M595,85 l-25,25 z" fill="none" stroke="black" stroke-width="1"/>
<path d="M610,10 l0,100 M610,10 l25,25 M635,35 l-25,25 M610,60 l25,25 M635,85 l-25,25 z" fill="none" stroke="black" stroke-width="1"/>
</svg>